<svg width="40" height="40" viewBox="0 0 40 40" fill="none" xmlns="http://www.w3.org/2000/svg">
    <g clip-path="url(#clip0_653_164)">
        <rect x="8" y="8" width="24" height="24" rx="12" fill="#0097A7"/>
        <mask id="mask0_653_164" style="mask-type:luminance" maskUnits="userSpaceOnUse" x="8" y="8" width="24" height="24">
            <rect x="8" y="8" width="24" height="24" rx="12" fill="white"/>
        </mask>
        <g mask="url(#mask0_653_164)">
            <path fill-rule="evenodd" clip-rule="evenodd" d="M8 8H32V32H8V26.4667V8Z" fill="#0097A7"/>
        </g>
        <rect x="8" y="8" width="24" height="24" rx="12" fill="#0097A7"/>
        <path fill-rule="evenodd" clip-rule="evenodd" d="M27 19.2183C27 22.225 25.2172 25.2304 22.6821 26.5261C22.2053 27.2391 21.0066 28 20.0001 28C19.0104 28 17.8665 27.2643 17.3889 26.5618C14.8162 25.2864 13 22.253 13 19.2183C13 15.2317 16.134 12 20 12C23.866 12 27 15.2317 27 19.2183ZM21.7248 24.8404C20.5933 25.7161 19.4061 25.7161 18.2901 24.8381C18.0852 24.6769 18.0458 24.3749 18.2021 24.1636C18.3585 23.9523 18.6513 23.9117 18.8562 24.0729C19.6389 24.6887 20.366 24.6887 21.1645 24.0706C21.3707 23.9111 21.6632 23.9541 21.8179 24.1666C21.9726 24.3792 21.931 24.6808 21.7248 24.8404ZM17.8827 22.4817C18.6221 22.2486 18.916 21.0294 18.5393 19.7586C18.1625 18.4879 17.2577 17.6467 16.5183 17.8798C15.7788 18.1129 15.4849 19.332 15.8616 20.6028C16.2384 21.8736 17.1432 22.7148 17.8827 22.4817ZM21.4607 19.7586C21.084 21.0294 21.3779 22.2486 22.1173 22.4817C22.8568 22.7148 23.7616 21.8736 24.1384 20.6028C24.5151 19.332 24.2212 18.1129 23.4817 17.8798C22.7423 17.6467 21.8375 18.4879 21.4607 19.7586Z" fill="#B2EBF2"/>
    </g>
    <defs>
        <clipPath id="clip0_653_164">
            <rect width="40" height="40" fill="white"/>
        </clipPath>
    </defs>
</svg>
