<svg width="16" height="16" viewBox="0 0 16 16" fill="none" xmlns="http://www.w3.org/2000/svg">
    <path fill-rule="evenodd" clip-rule="evenodd" d="M3.00354 5.05212H5.00354C5.00354 3.36225 6.34139 2 7.98313 2C9.62438 2 10.9627 3.36256 10.9627 5.05212H12.9627C12.9627 4.51621 12.8804 3.99955 12.7278 3.51456C12.7808 3.48463 12.8319 3.44941 12.8803 3.40883L14.4124 2.12326C14.8354 1.76826 14.8906 1.1375 14.5356 0.714425C14.1806 0.29135 13.5499 0.236166 13.1268 0.591168L11.7493 1.74703C10.8368 0.677474 9.48895 0 7.98313 0C6.48638 0 5.14595 0.668981 4.23389 1.72698L2.88028 0.591168C2.45721 0.236166 1.82645 0.29135 1.47145 0.714425C1.11645 1.1375 1.17163 1.76826 1.59471 2.12326L3.1268 3.40883C3.16461 3.44056 3.20407 3.46901 3.24485 3.49421C3.08817 3.98508 3.00354 4.5087 3.00354 5.05212ZM7 6C7 5.44772 7.44772 5 8 5C8.55229 5 9 5.44772 9 6V10C9 10.5523 8.55229 11 8 11C7.44772 11 7 10.5523 7 10V6ZM1 9.08716C0.447715 9.08716 0 8.63945 0 8.08716C0 7.53488 0.447715 7.08716 1 7.08716H4.37854L4.29553 8.16402C4.29456 8.17653 4.2925 8.21067 4.29024 8.26441C4.25317 9.14622 4.34143 10.226 4.65255 11.2339C5.19805 13.001 6.24534 13.9705 8.07877 13.9705C9.9243 13.9705 10.973 13.0015 11.5146 11.2356C11.8218 10.2342 11.9075 9.15993 11.8684 8.2768C11.8658 8.21881 11.8634 8.18175 11.8623 8.16792L11.7748 7.08716H14.9886C15.5409 7.08716 15.9886 7.53488 15.9886 8.08716C15.9886 8.63945 15.5409 9.08716 14.9886 9.08716H13.8708C13.8491 9.72196 13.7734 10.396 13.6233 11.0746C14.5542 11.3099 15.1892 12.0848 15.59 13.1469C15.8406 13.811 15.9593 14.4544 15.9996 14.9123C16.0481 15.4624 15.6414 15.9477 15.0912 15.9961C14.5411 16.0446 14.0558 15.6379 14.0073 15.0877C14.0017 15.0236 13.9844 14.8902 13.9517 14.7127C13.8969 14.4156 13.8195 14.1199 13.7188 13.8531C13.4954 13.2611 13.2458 13 13.0035 13C12.9896 13 12.9758 12.9997 12.962 12.9992C12.0434 14.8465 10.4377 15.9705 8.07877 15.9705C5.72136 15.9705 4.11685 14.839 3.19825 12.9811C3.13527 12.9935 3.07016 13 3.00354 13C2.76123 13 2.5116 13.2611 2.28822 13.8531C2.18754 14.1199 2.11017 14.4156 2.05535 14.7127C2.02259 14.8902 2.00533 15.0236 1.99968 15.0877C1.95123 15.6379 1.46596 16.0446 0.915805 15.9961C0.36565 15.9477 -0.0410583 15.4624 0.00739616 14.9123C0.047726 14.4544 0.166433 13.811 0.417026 13.1469C0.839277 12.028 1.52136 11.2279 2.53558 11.0415C2.38855 10.3734 2.31324 9.71075 2.29002 9.08716H1Z" fill="#158FEF"/>
    <mask id="mask0_653_342" style="mask-type:luminance" maskUnits="userSpaceOnUse" x="0" y="0" width="17" height="16">
        <path fill-rule="evenodd" clip-rule="evenodd" d="M3.00354 5.05212H5.00354C5.00354 3.36225 6.34139 2 7.98313 2C9.62438 2 10.9627 3.36256 10.9627 5.05212H12.9627C12.9627 4.51621 12.8804 3.99955 12.7278 3.51456C12.7808 3.48463 12.8319 3.44941 12.8803 3.40883L14.4124 2.12326C14.8354 1.76826 14.8906 1.1375 14.5356 0.714425C14.1806 0.29135 13.5499 0.236166 13.1268 0.591168L11.7493 1.74703C10.8368 0.677474 9.48895 0 7.98313 0C6.48638 0 5.14595 0.668981 4.23389 1.72698L2.88028 0.591168C2.45721 0.236166 1.82645 0.29135 1.47145 0.714425C1.11645 1.1375 1.17163 1.76826 1.59471 2.12326L3.1268 3.40883C3.16461 3.44056 3.20407 3.46901 3.24485 3.49421C3.08817 3.98508 3.00354 4.5087 3.00354 5.05212ZM7 6C7 5.44772 7.44772 5 8 5C8.55229 5 9 5.44772 9 6V10C9 10.5523 8.55229 11 8 11C7.44772 11 7 10.5523 7 10V6ZM1 9.08716C0.447715 9.08716 0 8.63945 0 8.08716C0 7.53488 0.447715 7.08716 1 7.08716H4.37854L4.29553 8.16402C4.29456 8.17653 4.2925 8.21067 4.29024 8.26441C4.25317 9.14622 4.34143 10.226 4.65255 11.2339C5.19805 13.001 6.24534 13.9705 8.07877 13.9705C9.9243 13.9705 10.973 13.0015 11.5146 11.2356C11.8218 10.2342 11.9075 9.15993 11.8684 8.2768C11.8658 8.21881 11.8634 8.18175 11.8623 8.16792L11.7748 7.08716H14.9886C15.5409 7.08716 15.9886 7.53488 15.9886 8.08716C15.9886 8.63945 15.5409 9.08716 14.9886 9.08716H13.8708C13.8491 9.72196 13.7734 10.396 13.6233 11.0746C14.5542 11.3099 15.1892 12.0848 15.59 13.1469C15.8406 13.811 15.9593 14.4544 15.9996 14.9123C16.0481 15.4624 15.6414 15.9477 15.0912 15.9961C14.5411 16.0446 14.0558 15.6379 14.0073 15.0877C14.0017 15.0236 13.9844 14.8902 13.9517 14.7127C13.8969 14.4156 13.8195 14.1199 13.7188 13.8531C13.4954 13.2611 13.2458 13 13.0035 13C12.9896 13 12.9758 12.9997 12.962 12.9992C12.0434 14.8465 10.4377 15.9705 8.07877 15.9705C5.72136 15.9705 4.11685 14.839 3.19825 12.9811C3.13527 12.9935 3.07016 13 3.00354 13C2.76123 13 2.5116 13.2611 2.28822 13.8531C2.18754 14.1199 2.11017 14.4156 2.05535 14.7127C2.02259 14.8902 2.00533 15.0236 1.99968 15.0877C1.95123 15.6379 1.46596 16.0446 0.915805 15.9961C0.36565 15.9477 -0.0410583 15.4624 0.00739616 14.9123C0.047726 14.4544 0.166433 13.811 0.417026 13.1469C0.839277 12.028 1.52136 11.2279 2.53558 11.0415C2.38855 10.3734 2.31324 9.71075 2.29002 9.08716H1Z" fill="white"/>
    </mask>
    <g mask="url(#mask0_653_342)">
        <path fill-rule="evenodd" clip-rule="evenodd" d="M0 0H16V16H0V12.3111V0Z" fill="#2C9AF0"/>
    </g>
</svg>
