<svg width="16" height="16" viewBox="0 0 16 16" fill="none" xmlns="http://www.w3.org/2000/svg">
    <path fill-rule="evenodd" clip-rule="evenodd" d="M13.8403 0.648423C14.622 0.387837 15.3657 1.13158 15.1052 1.91333L11.2161 12.1664C10.981 12.8716 10.0859 13.0829 9.56029 12.5573L3.19632 6.1933C2.67067 5.66765 2.88197 4.77259 3.5872 4.53751L13.8403 0.648423ZM12.5753 3.17825L5.75466 5.92321L9.83038 9.99893L12.5753 3.17825ZM5.6712 10.0824C6.06172 10.4729 6.06172 11.1061 5.6712 11.4966L2.84277 14.325C2.45225 14.7156 1.81908 14.7156 1.42856 14.325C1.03803 13.9345 1.03803 13.3013 1.42856 12.9108L4.25699 10.0824C4.64751 9.69186 5.28067 9.69186 5.6712 10.0824ZM3.54988 9.37528C3.9404 8.98476 3.9404 8.35159 3.54988 7.96107C3.15935 7.57054 2.52619 7.57054 2.13566 7.96107L0.721451 9.37528C0.330927 9.7658 0.330927 10.399 0.721451 10.7895C1.11198 11.18 1.74514 11.18 2.13566 10.7895L3.54988 9.37528ZM7.79252 12.2037C8.18304 12.5942 8.18304 13.2274 7.79252 13.6179L6.37831 15.0321C5.98778 15.4227 5.35462 15.4227 4.96409 15.0321C4.57357 14.6416 4.57357 14.0084 4.96409 13.6179L6.37831 12.2037C6.76883 11.8132 7.40199 11.8132 7.79252 12.2037Z" fill="#979797"/>
    <mask id="mask0_653_296" style="mask-type:luminance" maskUnits="userSpaceOnUse" x="0" y="0" width="16" height="16">
        <path fill-rule="evenodd" clip-rule="evenodd" d="M13.8403 0.648423C14.622 0.387837 15.3657 1.13158 15.1052 1.91333L11.2161 12.1664C10.981 12.8716 10.0859 13.0829 9.56029 12.5573L3.19632 6.1933C2.67067 5.66765 2.88197 4.77259 3.5872 4.53751L13.8403 0.648423ZM12.5753 3.17825L5.75466 5.92321L9.83038 9.99893L12.5753 3.17825ZM5.6712 10.0824C6.06172 10.4729 6.06172 11.1061 5.6712 11.4966L2.84277 14.325C2.45225 14.7156 1.81908 14.7156 1.42856 14.325C1.03803 13.9345 1.03803 13.3013 1.42856 12.9108L4.25699 10.0824C4.64751 9.69186 5.28067 9.69186 5.6712 10.0824ZM3.54988 9.37528C3.9404 8.98476 3.9404 8.35159 3.54988 7.96107C3.15935 7.57054 2.52619 7.57054 2.13566 7.96107L0.721451 9.37528C0.330927 9.7658 0.330927 10.399 0.721451 10.7895C1.11198 11.18 1.74514 11.18 2.13566 10.7895L3.54988 9.37528ZM7.79252 12.2037C8.18304 12.5942 8.18304 13.2274 7.79252 13.6179L6.37831 15.0321C5.98778 15.4227 5.35462 15.4227 4.96409 15.0321C4.57357 14.6416 4.57357 14.0084 4.96409 13.6179L6.37831 12.2037C6.76883 11.8132 7.40199 11.8132 7.79252 12.2037Z" fill="white"/>
    </mask>
    <g mask="url(#mask0_653_296)">
        <path fill-rule="evenodd" clip-rule="evenodd" d="M16 0H0V16H16V12.3111V0Z" fill="#90A4AE"/>
    </g>
</svg>
