<svg width="134" height="24" viewBox="0 0 134 24" fill="none" xmlns="http://www.w3.org/2000/svg">
    <path d="M53.5116 8.42546C53.5116 4.84774 51.1624 3.125 46.3561 3.125C44.3724 3.125 42.4652 3.22941 41.348 3.33034C41.348 3.33034 41 3.36166 41 3.70969V21.1354C41 21.1354 41 21.4835 41.348 21.4835H44.2297C44.2297 21.4835 44.5777 21.4835 44.5777 21.1354V14.5438C44.5777 14.5438 44.5777 14.1958 44.9258 14.1958H46.551C46.551 14.1958 46.8991 14.1958 47.0452 14.5125L50.1218 21.1668C50.1218 21.1668 50.268 21.4835 50.616 21.4835H53.8631C53.8631 21.4835 54.2111 21.4835 54.058 21.1702L50.2923 13.5693C50.2923 13.5693 50.1357 13.2561 50.1357 13.2317C50.1357 13.2317 50.1357 13.2074 50.4698 13.103C52.0742 12.6053 53.5116 10.8269 53.5116 8.42546ZM49.8295 8.66212C49.8295 10.3849 48.5487 11.4289 46.6172 11.4289H44.9292C44.9292 11.4289 44.5812 11.4289 44.5812 11.0809V6.39646C44.5812 6.39646 44.5812 6.04843 44.8039 6.03451C45.0267 6.02059 45.6775 5.96839 46.565 5.96839C48.6009 5.97187 49.8295 6.59832 49.8295 8.66212Z" fill="white"/>
    <path d="M133.158 21.4831C133.158 21.4831 133.506 21.4831 133.506 21.135V3.5492C133.506 3.5492 133.506 3.20117 133.158 3.20117H130.408C130.408 3.20117 130.06 3.20117 130.06 3.5492V10.2418C130.06 10.2418 130.06 10.5898 130.067 10.9378L130.182 15.6989C130.182 15.6989 130.189 16.0469 130.165 16.0469C130.165 16.0469 130.192 16.0469 130.165 16.0469C130.165 16.0469 130.14 16.0469 129.994 15.7302C128.181 11.7418 125.699 7.43319 123.517 3.50744C123.517 3.50744 123.347 3.20117 122.999 3.20117H119.571C119.571 3.20117 119.223 3.20117 119.223 3.5492V21.1316C119.223 21.1316 119.223 21.4796 119.571 21.4796H122.296C122.296 21.4796 122.644 21.4796 122.644 21.1316V14.1536C122.644 14.1536 122.644 13.8056 122.637 13.4576L122.546 8.72089C122.546 8.72089 122.539 8.37287 122.578 8.37287C122.539 8.37287 122.578 8.37287 122.578 8.37287C122.578 8.37287 122.616 8.37287 122.766 8.68957C124.001 11.3241 125.96 14.7975 129.448 21.1768C129.448 21.1768 129.615 21.4831 129.963 21.4831H133.158Z" fill="white"/>
    <path d="M108.87 21.7441C113.805 21.7441 116.102 19.0016 116.102 13.6246V3.5492C116.102 3.5492 116.102 3.20117 115.754 3.20117H112.796C112.796 3.20117 112.448 3.20117 112.448 3.5492V14.352C112.448 17.3033 111.247 18.8172 108.95 18.8172C106.758 18.8172 105.529 17.171 105.529 14.352V3.5492C105.529 3.5492 105.529 3.20117 105.181 3.20117H102.223C102.223 3.20117 101.875 3.20117 101.875 3.5492V14.1675C101.872 19.3392 104.43 21.7441 108.87 21.7441Z" fill="white"/>
    <path d="M80.6642 3.20172C80.6642 3.20172 80.3161 3.20172 80.1839 3.52191L78.489 7.61472L77.0273 11.6344H77.0029C77.0029 11.6344 76.9751 11.6344 76.8567 11.3073L75.489 7.61124L73.8185 3.52191C73.8185 3.52191 73.6862 3.19824 73.3382 3.19824H69.8823C69.8823 3.19824 69.5342 3.19824 69.6874 3.51147L74.9147 14.1159C74.9147 14.1159 75.0679 14.4291 75.0679 14.7771V21.1321C75.0679 21.1321 75.0679 21.4801 75.4159 21.4801H78.5308C78.5308 21.4801 78.8788 21.4801 78.8788 21.1321V14.7806C78.8788 14.7806 78.8788 14.4326 79.0354 14.1194L84.3115 3.51495C84.3115 3.51495 84.4681 3.20172 84.1201 3.20172H80.6642Z" fill="white"/>
    <path d="M95.9095 13.8968C95.9095 13.8968 95.5615 13.8968 95.5615 14.2448V18.1322C95.5615 18.1322 95.5615 18.4803 95.3666 18.5464C95.1717 18.6125 94.5174 18.7169 93.7065 18.7169C90.3132 18.7169 88.1694 16.3677 88.1694 12.3724C88.1694 8.24826 90.442 6.0522 93.8631 6.0522C95.638 6.0522 97.3886 6.34107 98.5371 6.8109L98.652 4.18329C98.652 4.18329 98.6659 3.83527 98.3457 3.69954C97.6218 3.38979 95.8468 3 93.8109 3C87.884 3 84.3828 6.86311 84.3828 12.4803C84.3828 17.8851 87.3863 21.6995 93.4977 21.6995C95.638 21.6995 97.8584 21.2297 98.812 20.8782C98.812 20.8782 99.1392 20.7564 99.1392 20.4083V14.2448C99.1392 14.2448 99.1392 13.8968 98.7912 13.8968H95.9095Z" fill="white"/>
    <path d="M60.8132 13.9067L61.6937 10.4682L62.7726 6.18397H62.8491C62.8491 6.18397 62.9257 6.19441 63.0092 6.53547L63.9559 10.4751L64.8677 13.9067H68.5359L65.3828 3.50763C65.3828 3.50763 65.2818 3.16309 64.9338 3.16309H60.928C60.928 3.16309 60.58 3.17353 60.4791 3.50763L57.3398 13.9067H60.8132Z" fill="white"/>
    <path d="M69.4031 16.75H65.627L66.7824 21.0899L66.8381 21.2709C66.8381 21.2709 66.8938 21.4519 67.2453 21.4519H70.4924C70.4924 21.4519 70.8404 21.4693 70.7395 21.1351L69.4031 16.75Z" fill="white"/>
    <path d="M56.4774 16.75L55.1445 21.1351C55.1445 21.1351 55.0435 21.4519 55.3916 21.4519H58.5168C58.5168 21.4519 58.8649 21.4693 58.9519 21.1317L60.083 16.75H56.4774Z" fill="white"/>
    <path d="M16.1691 10.0612L14.6378 9.79325L15.313 6.53223L12.6123 10.6424L14.1889 10.9104L13.4232 14.3524L16.1691 10.0612Z" fill="white"/>
    <path d="M20.7701 19.4233L20.7666 19.3815C20.6552 17.9094 20.5717 16.4233 20.516 14.9372C20.1332 14.9755 19.7504 15.0138 19.364 15.0381C18.1007 16.3781 16.3362 17.1437 14.4882 17.1437C11.9963 17.1437 9.68539 15.7342 8.5369 13.5312C8.38725 13.479 8.24107 13.4268 8.09142 13.3711L8.2898 13.8688L7.41277 13.7435C7.13783 13.7052 6.87333 13.6808 6.6123 13.6565C7.29096 14.9825 8.37333 16.1588 9.755 17.1124C10.6111 18.0451 11.1367 19.2806 11.1367 20.6449C11.1367 21.5045 10.9278 22.3119 10.5624 23.0254C10.5624 23.0289 10.5589 23.0323 10.5589 23.0323C10.4893 23.1716 10.4998 23.4639 10.7225 23.5613C11.3629 23.8398 12.0659 23.9929 12.8072 23.9929C13.1413 23.9929 13.4685 23.9581 13.7852 23.8989C13.7852 23.8955 13.7852 23.8955 13.7852 23.892C13.7121 23.5474 13.6738 23.189 13.6738 22.8235C13.6738 21.4558 14.1958 20.2133 15.052 19.2806C15.7724 19.4233 16.9487 19.5451 16.7852 19.5277C16.806 20.2655 16.9801 20.9651 17.2759 21.5985L17.7388 21.1356C17.6065 20.7145 17.5299 20.269 17.5299 19.8061C17.5299 19.7296 17.5334 19.653 17.5369 19.5764C17.5299 19.5764 17.5195 19.5764 17.5125 19.573C17.784 19.5869 18.0589 19.5938 18.3339 19.5938C19.1622 19.6008 19.9801 19.5381 20.7701 19.4233Z" fill="white"/>
    <path d="M14.4883 3.73808C16.3364 3.73808 18.1009 4.50374 19.3642 5.84365C19.7505 5.86453 20.1334 5.90629 20.5162 5.94457C20.5719 4.46198 20.6554 2.98286 20.7668 1.51418L20.7702 1.47242C19.9802 1.35757 19.1624 1.29492 18.3271 1.29492C12.428 1.29492 7.48254 4.28796 6.16699 8.31116C6.94309 7.95966 7.73312 7.63251 8.53706 7.35061C9.68555 5.15107 11.9965 3.73808 14.4883 3.73808Z" fill="white"/>
    <path d="M30.8322 10.4996C30.8322 9.53209 30.0492 8.74902 29.0816 8.74902C28.1141 8.74902 27.3311 9.53209 27.3311 10.4996C27.3311 11.4671 28.1141 12.2502 29.0816 12.2502C30.0457 12.2502 30.8322 11.4671 30.8322 10.4996Z" fill="white"/>
    <path d="M12.0797 1.2181C12.7166 1.2181 13.3431 1.26334 13.9591 1.34339C14.4776 1.20766 15.0101 1.09281 15.5531 1.0058C13.7294 0.354988 11.7665 0 9.71663 0C7.96605 0 6.27463 0.257541 4.68066 0.737819L5.45677 2.79814C7.44749 1.78886 9.69574 1.2181 12.0797 1.2181Z" fill="white"/>
    <path d="M20.9443 10.4474C20.9443 13.4404 21.0592 16.4091 21.2819 19.3464C21.8144 19.2525 22.3364 19.1341 22.8411 18.988C23.0464 16.1689 23.1508 13.3186 23.1508 10.4474C23.1508 7.57612 23.0464 4.72925 22.8411 1.91023C22.3364 1.76754 21.8179 1.64921 21.2819 1.55176C21.0557 4.48563 20.9443 7.45431 20.9443 10.4474Z" fill="white"/>
    <path d="M12.6472 1.74384C12.4593 1.73688 12.2679 1.7334 12.0799 1.7334C9.35141 1.7334 6.72379 2.50602 4.45117 3.97122L6.54282 6.32737C7.8166 4.31577 9.98134 2.70092 12.6472 1.74384Z" fill="white"/>
    <path d="M26.9479 11.2413C26.8678 11.0081 26.8121 10.761 26.8121 10.5C26.8121 10.239 26.8643 9.99186 26.9479 9.75868C25.7263 9.7378 24.5952 9.36193 23.6451 8.72852C23.652 9.30276 23.659 9.87353 23.659 10.4443C23.659 11.0499 23.652 11.6624 23.6416 12.2714C24.5952 11.6415 25.7263 11.2622 26.9479 11.2413Z" fill="white"/>
    <path d="M14.4884 15.7C11.5858 15.7 9.2297 13.3473 9.2297 10.4413C9.2297 7.53874 11.5824 5.18259 14.4884 5.18259C17.391 5.18259 19.7471 7.53526 19.7471 10.4413C19.7436 13.3438 17.391 15.7 14.4884 15.7ZM20.4292 10.4483C20.4292 9.11879 20.4536 7.78584 20.4988 6.45289C20.0429 6.40765 19.587 6.36937 19.1241 6.34848C17.9896 5.06426 16.3329 4.25684 14.4849 4.25684C12.0244 4.25684 9.89791 5.69419 8.90255 7.7754C6.90835 8.44709 5.0116 9.34848 3.25058 10.4413C4.01276 10.9146 4.7993 11.3496 5.60673 11.7464C3.57773 12.2128 1.68794 13.0271 0 14.1304C1.67749 13.4587 3.50812 13.0863 5.42575 13.0863C6.12529 13.0863 6.8109 13.142 7.48608 13.236C7.2703 12.7 7.11717 12.1327 7.03016 11.5445C7.15545 11.903 7.3051 12.251 7.47912 12.5851C7.94896 12.7731 8.42227 12.9506 8.90255 13.1141C9.90139 15.1954 12.0244 16.6327 14.4849 16.6327C16.3329 16.6327 17.9896 15.8218 19.1241 14.5411C19.587 14.5202 20.0429 14.4819 20.4988 14.4367C20.4571 13.1037 20.4292 11.7708 20.4292 10.4483Z" fill="white"/>
</svg>
