<svg width="24" height="24" viewBox="0 0 24 24" fill="none" xmlns="http://www.w3.org/2000/svg">
    <path fill-rule="evenodd" clip-rule="evenodd" d="M12 24C5.37258 24 0 18.6274 0 12C0 5.37258 5.37258 0 12 0C12.0488 0 12.0976 0.000291616 12.1463 0.000873203L12.1466 0V0.000877171C18.7065 0.0794123 24 5.42152 24 12C24 18.6274 18.6274 24 12 24ZM11.3793 2.01895C6.14557 2.33945 2 6.6856 2 12C2 17.5228 6.47715 22 12 22C12.049 22 12.0978 21.9996 12.1466 21.9989V13.542H7L11.3793 2.01895ZM12.6132 21.9815L17.2264 9.49609H12.1466V2.00105C17.6019 2.07945 22 6.5261 22 12C22 17.3169 17.8505 21.6647 12.6132 21.9815Z" fill="white"/>
</svg>
