<svg width="16" height="16" viewBox="0 0 16 16" fill="none" xmlns="http://www.w3.org/2000/svg">
    <path fill-rule="evenodd" clip-rule="evenodd" d="M7.998 11C6.344 11 4.998 9.654 4.998 8C4.998 6.346 6.344 5 7.998 5C9.652 5 10.998 6.346 10.998 8C10.998 9.654 9.652 11 7.998 11ZM13.998 7C13.445 7 12.918 6.557 12.707 6.048C12.497 5.54 12.557 4.854 12.947 4.463L13.654 3.757C14.045 3.366 14.045 2.732 13.655 2.342C13.265 1.951 12.631 1.951 12.24 2.342C12.24 2.342 11.924 2.658 11.533 3.049C11.142 3.439 10.457 3.5 9.949 3.29C9.442 3.08 8.998 2.553 8.998 2V1C8.998 0.447 8.551 0 7.998 0C7.445 0 6.998 0.447 6.998 1V2C6.998 2.553 6.555 3.08 6.048 3.291C5.54 3.502 4.855 3.441 4.465 3.051L3.756 2.344C3.365 1.953 2.731 1.954 2.343 2.344C1.952 2.734 1.952 3.367 2.342 3.758L3.051 4.466C3.441 4.856 3.51 5.545 3.338 6.063C3.168 6.58 2.648 7.016 2.096 7.01L1 7C0.448 7 0 7.449 0 8C0 8.553 0.448 9 1 9H2.001C2.553 9 3.088 9.438 3.332 9.925C3.577 10.411 3.519 11.084 3.125 11.471L2.342 12.24C1.951 12.631 1.952 13.266 2.342 13.654C2.732 14.045 3.366 14.045 3.756 13.655L4.464 12.947C4.854 12.557 5.539 12.496 6.048 12.707C6.555 12.918 6.998 13.445 6.998 13.998V14.999C6.998 15.551 7.446 15.999 7.998 15.998C8.551 15.998 8.998 15.551 8.998 14.999V13.998C8.998 13.445 9.442 12.918 9.949 12.709C10.457 12.498 11.142 12.559 11.533 12.949L12.24 13.656C12.631 14.047 13.265 14.047 13.653 13.656C14.044 13.266 14.045 12.632 13.655 12.242L12.947 11.534C12.557 11.144 12.496 10.458 12.707 9.95C12.918 9.442 13.445 9 13.998 9H14.998C15.551 9 15.998 8.553 15.998 8C15.998 7.447 15.551 7 14.998 7H13.998Z" fill="#90A4AE"/>
</svg>
