<svg width="16" height="16" viewBox="0 0 16 16" fill="none" xmlns="http://www.w3.org/2000/svg">
    <path fill-rule="evenodd" clip-rule="evenodd" d="M13 3.5C13 4.328 12.328 5 11.5 5C10.671 5 10 4.328 10 3.5C10 2.672 10.671 2 11.5 2C12.328 2 13 2.672 13 3.5ZM6 7.5C6 8.328 5.328 9 4.5 9C3.671 9 3 8.328 3 7.5C3 6.672 3.671 6 4.5 6C5.328 6 6 6.672 6 7.5ZM14 10H9V9.5C9 8.121 10.121 7 11.5 7C12.879 7 14 8.121 14 9.5V10ZM7 14H2V13.5C2 12.121 3.121 11 4.5 11C5.879 11 7 12.121 7 13.5V14ZM14.094 5.832C14.651 5.212 15 4.4 15 3.5C15 1.566 13.433 0 11.5 0C9.566 0 8 1.566 8 3.5C8 4.4 8.348 5.212 8.906 5.832C8.531 6.098 8.206 6.424 7.928 6.79C7.599 5.197 6.19 4 4.5 4C2.566 4 1 5.566 1 7.5C1 8.4 1.348 9.212 1.906 9.832C0.756 10.646 0 11.982 0 13.5V15C0 15.553 0.447 16 1 16H8C8.553 16 9 15.553 9 15V13.5C9 12.57 8.828 12.281 8.724 12H15C15.553 12 16 11.553 16 11V9.5C16 7.982 15.244 6.646 14.094 5.832Z" fill="#90A4AE"/>
    <mask id="mask0_687_1604" style="mask-type:luminance" maskUnits="userSpaceOnUse" x="0" y="0" width="16" height="16">
        <path fill-rule="evenodd" clip-rule="evenodd" d="M13 3.5C13 4.328 12.328 5 11.5 5C10.671 5 10 4.328 10 3.5C10 2.672 10.671 2 11.5 2C12.328 2 13 2.672 13 3.5ZM6 7.5C6 8.328 5.328 9 4.5 9C3.671 9 3 8.328 3 7.5C3 6.672 3.671 6 4.5 6C5.328 6 6 6.672 6 7.5ZM14 10H9V9.5C9 8.121 10.121 7 11.5 7C12.879 7 14 8.121 14 9.5V10ZM7 14H2V13.5C2 12.121 3.121 11 4.5 11C5.879 11 7 12.121 7 13.5V14ZM14.094 5.832C14.651 5.212 15 4.4 15 3.5C15 1.566 13.433 0 11.5 0C9.566 0 8 1.566 8 3.5C8 4.4 8.348 5.212 8.906 5.832C8.531 6.098 8.206 6.424 7.928 6.79C7.599 5.197 6.19 4 4.5 4C2.566 4 1 5.566 1 7.5C1 8.4 1.348 9.212 1.906 9.832C0.756 10.646 0 11.982 0 13.5V15C0 15.553 0.447 16 1 16H8C8.553 16 9 15.553 9 15V13.5C9 12.57 8.828 12.281 8.724 12H15C15.553 12 16 11.553 16 11V9.5C16 7.982 15.244 6.646 14.094 5.832Z" fill="white"/>
    </mask>
    <g mask="url(#mask0_687_1604)">
        <path fill-rule="evenodd" clip-rule="evenodd" d="M16 0H0V16H16V12.3111V0Z" fill="#90A4AE"/>
    </g>
</svg>
