<svg width="16" height="16" viewBox="0 0 16 16" fill="none" xmlns="http://www.w3.org/2000/svg">
    <path fill-rule="evenodd" clip-rule="evenodd" d="M3 14H13C13 11.932 11.701 10.054 9.768 9.326C9.412 9.193 9.163 8.869 9.125 8.491C9.087 8.113 9.266 7.746 9.587 7.544C10.472 6.987 11 6.037 11 5C11 3.346 9.654 2 8 2C6.346 2 5 3.346 5 5C5 6.037 5.528 6.987 6.412 7.544C6.734 7.746 6.913 8.113 6.875 8.491C6.836 8.869 6.587 9.193 6.232 9.326C4.299 10.054 3 11.932 3 14ZM14 16H2C1.448 16 1 15.553 1 15V14C1 11.635 2.213 9.447 4.133 8.17C3.408 7.289 3 6.178 3 5C3 2.243 5.243 0 8 0C10.757 0 13 2.243 13 5C13 6.178 12.592 7.289 11.867 8.17C13.787 9.447 15 11.635 15 14V15C15 15.553 14.552 16 14 16Z" fill="#0A0B09"/>
    <mask id="mask0_653_246" style="mask-type:luminance" maskUnits="userSpaceOnUse" x="1" y="0" width="14" height="16">
        <path fill-rule="evenodd" clip-rule="evenodd" d="M3 14H13C13 11.932 11.701 10.054 9.768 9.326C9.412 9.193 9.163 8.869 9.125 8.491C9.087 8.113 9.266 7.746 9.587 7.544C10.472 6.987 11 6.037 11 5C11 3.346 9.654 2 8 2C6.346 2 5 3.346 5 5C5 6.037 5.528 6.987 6.412 7.544C6.734 7.746 6.913 8.113 6.875 8.491C6.836 8.869 6.587 9.193 6.232 9.326C4.299 10.054 3 11.932 3 14ZM14 16H2C1.448 16 1 15.553 1 15V14C1 11.635 2.213 9.447 4.133 8.17C3.408 7.289 3 6.178 3 5C3 2.243 5.243 0 8 0C10.757 0 13 2.243 13 5C13 6.178 12.592 7.289 11.867 8.17C13.787 9.447 15 11.635 15 14V15C15 15.553 14.552 16 14 16Z" fill="white"/>
    </mask>
    <g mask="url(#mask0_653_246)">
        <path fill-rule="evenodd" clip-rule="evenodd" d="M16 0H0V16H16V12.3111V0Z" fill="#90A4AE"/>
    </g>
</svg>
