<svg width="16" height="16" viewBox="0 0 16 16" fill="none" xmlns="http://www.w3.org/2000/svg">
    <path fill-rule="evenodd" clip-rule="evenodd" d="M2 8.191V5.808L14 3.237V10.762L2 8.191ZM8 13.523L5 12.323V10.879L8 11.522V13.523ZM15 0C14.447 0 14 0.447 14 1V1.191L0.79 4.022C0.329 4.121 0 4.528 0 5V9C0 9.471 0.329 9.878 0.79 9.977L3 10.451V13C3 13.409 3.249 13.776 3.629 13.928L8.629 15.928C8.748 15.976 8.874 16 9 16C9.197 16 9.393 15.941 9.56 15.828C9.835 15.641 10 15.332 10 15V11.951L14 12.808V13C14 13.552 14.447 14 15 14C15.553 14 16 13.552 16 13V12V2V1C16 0.447 15.553 0 15 0Z" fill="#90A4AE"/>
</svg>
